<?xml version="1.0" standalone="no"?>
<!DOCTYPE svg PUBLIC "-//W3C//DTD SVG 20010904//EN"
 "http://www.w3.org/TR/2001/REC-SVG-20010904/DTD/svg10.dtd">
<svg version="1.0" xmlns="http://www.w3.org/2000/svg"
 width="300.000000pt" height="300.000000pt" viewBox="0 0 300.000000 300.000000"
 preserveAspectRatio="xMidYMid meet">
<metadata>
Created by potrace 1.11, written by Peter Selinger 2001-2013
</metadata>
<g transform="translate(0.000000,300.000000) scale(0.100000,-0.100000)"
fill="#000000" stroke="none">
<path d="M1364 2890 c-71 -18 -140 -49 -199 -89 -40 -27 -896 -882 -947 -945
-140 -176 -163 -416 -60 -626 35 -71 64 -102 502 -541 288 -289 486 -479 520
-501 184 -116 396 -126 592 -27 71 36 91 55 603 567 298 300 420 428 448 474
114 189 111 428 -9 615 -36 57 -888 918 -964 975 -134 100 -328 139 -486 98z"/>
</g>
</svg>
